<?xml version="1.0" standalone="no"?>
<!DOCTYPE svg PUBLIC "-//W3C//DTD SVG 20010904//EN"
 "http://www.w3.org/TR/2001/REC-SVG-20010904/DTD/svg10.dtd">
<svg version="1.0" xmlns="http://www.w3.org/2000/svg"
 width="441.000000pt" height="441.000000pt" viewBox="0 0 441.000000 441.000000"
 preserveAspectRatio="xMidYMid meet">
<metadata>
Created by potrace 1.11, written by Peter Selinger 2001-2013
</metadata>
<g transform="translate(0.000000,441.000000) scale(0.100000,-0.100000)"
fill="#000000" stroke="none">
<path d="M4116 3848 c3 -5 10 -6 15 -3 13 9 11 12 -6 12 -8 0 -12 -4 -9 -9z"/>
<path d="M2870 3671 c0 -6 4 -13 10 -16 6 -3 7 1 4 9 -7 18 -14 21 -14 7z"/>
<path d="M3487 3570 c-25 -15 -48 -33 -51 -39 -4 -6 -12 -8 -18 -5 -6 4 -8 3
-5 -3 12 -19 -39 -62 -102 -87 -35 -14 -67 -23 -72 -20 -5 3 -9 1 -9 -5 0 -9
-99 -61 -115 -61 -3 0 -23 -11 -46 -25 -22 -14 -45 -23 -51 -19 -6 4 -8 3 -5
-3 4 -6 -15 -22 -42 -37 l-49 -26 -12 29 c-6 17 -9 35 -5 40 3 6 1 11 -4 11
-6 0 -11 8 -11 19 0 10 -7 24 -15 31 -9 7 -13 19 -11 27 3 8 -6 25 -21 39 -24
22 -33 25 -73 19 -36 -5 -55 -16 -96 -56 -27 -27 -53 -47 -56 -44 -5 5 -23
-34 -20 -42 1 -2 -5 -20 -12 -41 -11 -30 -11 -41 -1 -55 7 -9 15 -17 19 -17 9
0 56 -43 56 -52 0 -4 -29 -8 -65 -8 -83 0 -156 -16 -225 -48 -30 -15 -58 -25
-62 -24 -5 1 -8 -3 -8 -9 0 -7 -10 -9 -27 -5 -20 5 -24 4 -13 -3 11 -8 5 -14
-30 -30 -25 -12 -52 -25 -60 -30 -22 -13 -60 -29 -105 -45 -47 -16 -164 -14
-175 4 -4 6 -10 11 -14 11 -25 -4 -36 0 -30 11 4 6 3 8 -3 5 -6 -4 -42 9 -81
28 -108 52 -165 66 -260 61 -46 -3 -92 -8 -103 -11 -11 -4 -27 -1 -36 7 -11 8
-14 9 -10 1 6 -9 -28 -12 -140 -10 -134 2 -152 0 -188 -20 -22 -11 -48 -30
-59 -42 -10 -11 -24 -18 -30 -14 -6 3 -8 3 -4 -2 4 -4 -2 -26 -13 -48 -26 -49
-27 -132 -3 -179 16 -32 91 -108 107 -108 5 0 5 -6 1 -12 -4 -7 -4 -10 1 -6
11 11 47 -11 39 -24 -4 -7 -3 -8 5 -4 6 4 33 -8 60 -29 51 -37 87 -87 95 -130
3 -14 14 -37 25 -51 11 -15 18 -31 14 -37 -3 -6 -1 -7 6 -3 6 4 18 3 25 -4 47
-38 176 -23 303 36 18 8 61 17 96 21 51 4 72 2 115 -17 28 -12 49 -26 46 -31
-3 -5 1 -6 9 -3 24 9 30 -14 16 -62 -12 -41 -21 -48 -56 -47 -7 0 -11 -2 -10
-6 1 -3 -11 -23 -27 -44 -28 -36 -32 -38 -80 -36 -56 2 -100 -7 -132 -27 -22
-15 -70 -94 -57 -94 4 0 3 -4 -4 -8 -7 -4 -14 -22 -18 -39 -3 -18 -9 -43 -14
-56 -6 -14 -7 -28 -4 -31 4 -3 2 -6 -4 -6 -6 0 -8 -12 -6 -27 3 -17 1 -23 -4
-16 -5 7 -9 -8 -10 -37 -1 -48 -1 -49 41 -70 28 -13 69 -21 122 -24 43 -2 88
-5 98 -5 13 -1 -1 -14 -40 -40 -109 -71 -167 -142 -240 -296 -52 -108 -78
-143 -139 -185 -41 -28 -47 -40 -61 -115 -2 -11 -9 -32 -15 -47 -25 -62 -9
-128 31 -128 19 0 43 24 46 44 3 21 50 91 86 128 58 61 137 120 149 112 7 -4
9 -3 5 4 -4 6 19 28 56 53 97 66 326 227 349 247 12 9 33 28 48 42 79 74 85
76 40 15 -66 -90 -98 -123 -127 -130 -36 -9 -80 -42 -87 -65 -4 -11 -9 -18
-13 -16 -4 2 -6 -13 -6 -35 1 -21 -2 -42 -7 -45 -5 -3 -6 -11 -2 -17 4 -7 8
-39 10 -72 4 -96 12 -126 31 -123 25 4 38 27 45 78 4 36 13 52 43 78 21 17 45
32 54 32 9 0 20 4 25 9 6 4 57 25 115 45 58 21 119 43 135 49 17 6 33 11 38 9
4 -1 7 2 7 8 0 5 7 10 15 10 8 0 55 20 103 46 82 42 172 120 180 154 8 32 -2
242 -11 258 -3 4 -7 40 -9 79 -2 39 -6 69 -9 67 -6 -3 -20 71 -25 126 0 8 -6
28 -13 43 -6 16 -11 34 -11 40 0 7 -7 23 -16 35 -13 19 -13 22 -1 22 8 0 18 7
21 16 3 8 11 12 17 8 7 -4 9 -3 6 3 -9 14 58 114 69 105 4 -4 4 -2 1 4 -7 12
69 173 88 186 5 4 7 8 3 8 -3 0 11 36 33 79 21 44 39 84 39 91 0 6 4 9 9 6 5
-4 7 2 4 12 -2 11 1 25 9 33 7 8 15 23 16 34 5 23 52 81 64 78 4 -2 7 0 5 5
-1 4 34 41 77 82 44 41 93 89 110 105 17 17 65 60 106 95 41 35 94 82 117 103
26 25 46 36 54 32 7 -5 10 -4 6 2 -9 15 76 91 110 98 15 4 35 9 43 12 8 4 17
7 20 8 67 17 108 96 70 136 -27 29 -57 29 -103 -1z m-1359 -1135 c-6 -14 -15
-25 -20 -25 -5 0 -6 -5 -3 -10 8 -13 -30 -62 -40 -52 -5 4 -5 1 0 -7 4 -7 3
-16 -2 -20 -6 -3 -20 -25 -32 -48 -12 -24 -23 -43 -24 -43 -2 0 -3 17 -2 38 0
20 -3 51 -6 67 -6 28 -3 33 65 77 39 25 72 47 73 47 2 1 -3 -10 -9 -24z m-202
-243 c30 2 39 -1 39 -12 0 -11 -13 -16 -50 -17 -27 -2 -60 -4 -72 -6 -31 -6
-29 7 4 33 18 14 29 17 33 9 4 -6 25 -9 46 -7z m332 -456 c-28 -11 -105 -56
-121 -71 -58 -53 -66 -55 -26 -5 24 30 57 84 73 118 l28 64 24 -53 c14 -28 23
-52 22 -53z"/>
<path d="M2370 3456 c0 -2 7 -7 16 -10 8 -3 12 -2 9 4 -6 10 -25 14 -25 6z"/>
<path d="M3590 3386 c0 -2 8 -10 18 -17 15 -13 16 -12 3 4 -13 16 -21 21 -21
13z"/>
<path d="M666 3368 c3 -5 10 -6 15 -3 13 9 11 12 -6 12 -8 0 -12 -4 -9 -9z"/>
<path d="M636 3303 c-6 -14 -5 -15 5 -6 7 7 10 15 7 18 -3 3 -9 -2 -12 -12z"/>
<path d="M3355 3239 c-4 -6 -5 -12 -2 -15 2 -3 7 2 10 11 7 17 1 20 -8 4z"/>
<path d="M1760 3136 c0 -2 8 -10 18 -17 15 -13 16 -12 3 4 -13 16 -21 21 -21
13z"/>
<path d="M3085 2970 c-3 -6 1 -7 9 -4 18 7 21 14 7 14 -6 0 -13 -4 -16 -10z"/>
<path d="M636 2823 c-6 -14 -5 -15 5 -6 7 7 10 15 7 18 -3 3 -9 -2 -12 -12z"/>
<path d="M3087 2649 c7 -7 15 -10 18 -7 3 3 -2 9 -12 12 -14 6 -15 5 -6 -5z"/>
<path d="M450 2490 c0 -5 5 -10 11 -10 5 0 7 5 4 10 -3 6 -8 10 -11 10 -2 0
-4 -4 -4 -10z"/>
<path d="M3727 2329 c7 -7 15 -10 18 -7 3 3 -2 9 -12 12 -14 6 -15 5 -6 -5z"/>
<path d="M2710 2311 c0 -6 4 -13 10 -16 6 -3 7 1 4 9 -7 18 -14 21 -14 7z"/>
<path d="M3820 2316 c0 -2 8 -10 18 -17 15 -13 16 -12 3 4 -13 16 -21 21 -21
13z"/>
<path d="M790 2286 c0 -2 8 -10 18 -17 15 -13 16 -12 3 4 -13 16 -21 21 -21
13z"/>
<path d="M1544 2252 c4 -3 14 -7 22 -8 9 -1 13 0 10 4 -4 3 -14 7 -22 8 -9 1
-13 0 -10 -4z"/>
<path d="M3195 2070 c-3 -5 -1 -10 4 -10 6 0 11 5 11 10 0 6 -2 10 -4 10 -3 0
-8 -4 -11 -10z"/>
<path d="M2625 1770 c-3 -6 1 -7 9 -4 18 7 21 14 7 14 -6 0 -13 -4 -16 -10z"/>
<path d="M1100 1756 c0 -2 8 -10 18 -17 15 -13 16 -12 3 4 -13 16 -21 21 -21
13z"/>
<path d="M640 1590 c-9 -6 -10 -10 -3 -10 6 0 15 5 18 10 8 12 4 12 -15 0z"/>
<path d="M630 1486 c0 -2 8 -10 18 -17 15 -13 16 -12 3 4 -13 16 -21 21 -21
13z"/>
<path d="M3999 1423 c-13 -16 -12 -17 4 -4 16 13 21 21 13 21 -2 0 -10 -8 -17
-17z"/>
<path d="M209 1373 c-13 -16 -12 -17 4 -4 9 7 17 15 17 17 0 8 -8 3 -21 -13z"/>
<path d="M85 1370 c-3 -6 1 -7 9 -4 18 7 21 14 7 14 -6 0 -13 -4 -16 -10z"/>
<path d="M3834 1176 c1 -8 5 -18 8 -22 4 -3 5 1 4 10 -1 8 -5 18 -8 22 -4 3
-5 -1 -4 -10z"/>
<path d="M1595 830 c3 -5 8 -10 11 -10 2 0 4 5 4 10 0 6 -5 10 -11 10 -5 0 -7
-4 -4 -10z"/>
<path d="M875 771 c-3 -5 -2 -12 3 -15 5 -3 9 1 9 9 0 17 -3 19 -12 6z"/>
<path d="M2079 463 c-13 -16 -12 -17 4 -4 16 13 21 21 13 21 -2 0 -10 -8 -17
-17z"/>
<path d="M1624 412 c4 -3 14 -7 22 -8 9 -1 13 0 10 4 -4 3 -14 7 -22 8 -9 1
-13 0 -10 -4z"/>
</g>
</svg>
